REM DIRINDEX 1\2,1\4,1\3\5,1\3\6,1\3\7
REM DIRNAME folder01,folder02,folder03,folder04,folder05,folder06,folder07
TITLE ""
FILE "CD2Track07.mp3" MP3
  TRACK 01 AUDIO
    TITLE "0:"
    INDEX 01 00:00:00
  TRACK 02 AUDIO
    TITLE "5:cjc082_1414"
    INDEX 01 00:00:29
  TRACK 03 AUDIO
    TITLE "0:"
    INDEX 01 00:02:47
  TRACK 04 AUDIO
    TITLE "6:cjc082_1415"
    INDEX 01 00:03:21
  TRACK 05 AUDIO
    TITLE "0:"
    INDEX 01 00:06:61
  TRACK 06 AUDIO
    TITLE "5:cjc082_1416"
    INDEX 01 00:07:29
  TRACK 07 AUDIO
    TITLE "0:"
    INDEX 01 00:09:08
  TRACK 08 AUDIO
    TITLE "6:cjc082_1417"
    INDEX 01 00:09:57
  TRACK 09 AUDIO
    TITLE "0:"
    INDEX 01 00:12:56
  TRACK 10 AUDIO
    TITLE "5:cjc082_1418"
    INDEX 01 00:13:30
  TRACK 11 AUDIO
    TITLE "0:"
    INDEX 01 00:14:53
  TRACK 12 AUDIO
    TITLE "6:cjc082_1419"
    INDEX 01 00:15:28
  TRACK 13 AUDIO
    TITLE "0:"
    INDEX 01 00:17:43
  TRACK 14 AUDIO
    TITLE "5:cjc082_1420"
    INDEX 01 00:18:15
  TRACK 15 AUDIO
    TITLE "0:"
    INDEX 01 00:19:52
  TRACK 16 AUDIO
    TITLE "6:cjc082_1421"
    INDEX 01 00:20:24
  TRACK 17 AUDIO
    TITLE "0:"
    INDEX 01 00:22:17
  TRACK 18 AUDIO
    TITLE "5:cjc082_1422"
    INDEX 01 00:22:62
  TRACK 19 AUDIO
    TITLE "0:"
    INDEX 01 00:24:08
  TRACK 20 AUDIO
    TITLE "6:cjc082_1423"
    INDEX 01 00:24:55
  TRACK 21 AUDIO
    TITLE "0:"
    INDEX 01 00:26:07
  TRACK 22 AUDIO
    TITLE "5:cjc082_1424"
    INDEX 01 00:26:58
  TRACK 23 AUDIO
    TITLE "0:"
    INDEX 01 00:28:08
  TRACK 24 AUDIO
    TITLE "6:cjc082_1425"
    INDEX 01 00:28:59
  TRACK 25 AUDIO
    TITLE "0:"
    INDEX 01 00:31:61
  TRACK 26 AUDIO
    TITLE "5:cjc082_1426"
    INDEX 01 00:32:35
  TRACK 27 AUDIO
    TITLE "0:"
    INDEX 01 00:33:42
  TRACK 28 AUDIO
    TITLE "6:cjc082_1427"
    INDEX 01 00:34:20
  TRACK 29 AUDIO
    TITLE "0:"
    INDEX 01 00:35:29
  TRACK 30 AUDIO
    TITLE "5:cjc082_1428"
    INDEX 01 00:36:03
  TRACK 31 AUDIO
    TITLE "0:"
    INDEX 01 00:37:28
  TRACK 32 AUDIO
    TITLE "6:cjc082_1429"
    INDEX 01 00:38:06
  TRACK 33 AUDIO
    TITLE "0:"
    INDEX 01 00:39:23
  TRACK 34 AUDIO
    TITLE "5:cjc082_1430"
    INDEX 01 00:39:68
  TRACK 35 AUDIO
    TITLE "0:"
    INDEX 01 00:41:02
  TRACK 36 AUDIO
    TITLE "6:cjc082_1431"
    INDEX 01 00:41:55
  TRACK 37 AUDIO
    TITLE "0:"
    INDEX 01 00:43:74
  TRACK 38 AUDIO
    TITLE "5:cjc082_1432"
    INDEX 01 00:44:50
  TRACK 39 AUDIO
    TITLE "0:"
    INDEX 01 00:46:23
  TRACK 40 AUDIO
    TITLE "6:cjc082_1433"
    INDEX 01 00:46:74
  TRACK 41 AUDIO
    TITLE "0:"
    INDEX 01 00:48:59
  TRACK 42 AUDIO
    TITLE "5:cjc082_1434"
    INDEX 01 00:49:27
  TRACK 43 AUDIO
    TITLE "0:"
    INDEX 01 00:51:22
  TRACK 44 AUDIO
    TITLE "6:cjc082_1435"
    INDEX 01 00:51:67
  TRACK 45 AUDIO
    TITLE "0:"
    INDEX 01 00:54:05
  TRACK 46 AUDIO
    TITLE "5:cjc082_1436"
    INDEX 01 00:54:54
  TRACK 47 AUDIO
    TITLE "0:"
    INDEX 01 00:55:73
  TRACK 48 AUDIO
    TITLE "6:cjc082_1437"
    INDEX 01 00:56:45
  TRACK 49 AUDIO
    TITLE "0:"
    INDEX 01 00:57:58
  TRACK 50 AUDIO
    TITLE "5:cjc082_1438"
    INDEX 01 00:58:34
  TRACK 51 AUDIO
    TITLE "0:"
    INDEX 01 00:59:71
  TRACK 52 AUDIO
    TITLE "6:cjc082_1439"
    INDEX 01 01:00:43
  TRACK 53 AUDIO
    TITLE "0:"
    INDEX 01 01:02:28
  TRACK 54 AUDIO
    TITLE "5:cjc082_1440"
    INDEX 01 01:03:02
  TRACK 55 AUDIO
    TITLE "0:"
    INDEX 01 01:04:43
  TRACK 56 AUDIO
    TITLE "6:cjc082_1441"
    INDEX 01 01:05:19
  TRACK 57 AUDIO
    TITLE "0:"
    INDEX 01 01:07:08
  TRACK 58 AUDIO
    TITLE "7:cjc082_1442"
    INDEX 01 01:08:46
  TRACK 59 AUDIO
    TITLE "0:"
    INDEX 01 01:19:11
